<?xml version="1.0" encoding="UTF-8" standalone="no"?>
<!DOCTYPE svg PUBLIC "-//W3C//DTD SVG 1.1//EN"
 "http://www.w3.org/Graphics/SVG/1.1/DTD/svg11.dtd">
<!-- Generated by graphviz version 2.38.0 (20140413.2041)
 -->
<!-- Title: %3 Pages: 1 -->
<svg width="290pt" height="287pt"
 viewBox="0.00 0.00 289.50 287.00" xmlns="http://www.w3.org/2000/svg" xmlns:xlink="http://www.w3.org/1999/xlink">
<g id="graph0" class="graph" transform="scale(1 1) rotate(0) translate(4 283)">
<title>%3</title>
<polygon fill="white" stroke="none" points="-4,4 -4,-283 285.505,-283 285.505,4 -4,4"/>
<!-- null -->
<g id="node1" class="node"><title>null</title>
<ellipse fill="none" stroke="black" cx="82.5046" cy="-270" rx="9" ry="9"/>
</g>
<!-- empty -->
<g id="node2" class="node"><title>empty</title>
<polygon fill="#73dcff" stroke="black" points="154.505,-210 10.5046,-210 10.5046,-174 154.505,-174 154.505,-210"/>
<text text-anchor="middle" x="82.5046" y="-188.3" font-family="Arial" font-size="14.00">empty</text>
</g>
<!-- null&#45;&gt;empty -->
<g id="edge1" class="edge"><title>null&#45;&gt;empty</title>
<path fill="none" stroke="black" d="M82.5046,-260.867C82.5046,-251.285 82.5046,-234.86 82.5046,-220.568"/>
<polygon fill="black" stroke="black" points="86.0047,-220.204 82.5046,-210.204 79.0047,-220.204 86.0047,-220.204"/>
<text text-anchor="middle" x="102.505" y="-231.8" font-family="Arial" font-size="14.00">create</text>
</g>
<!-- partial -->
<g id="node3" class="node"><title>partial</title>
<polygon fill="#73dcff" stroke="black" points="154.505,-123 10.5046,-123 10.5046,-87 154.505,-87 154.505,-123"/>
<text text-anchor="middle" x="82.5046" y="-101.3" font-family="Arial" font-size="14.00">partial</text>
</g>
<!-- empty&#45;&gt;partial -->
<g id="edge2" class="edge"><title>empty&#45;&gt;partial</title>
<path fill="none" stroke="black" d="M22.7345,-173.899C15.1301,-169.276 8.33175,-163.418 3.50457,-156 -3.83283,-144.724 1.86177,-135.508 12.919,-128.201"/>
<polygon fill="black" stroke="black" points="14.7988,-131.16 21.8084,-123.215 11.3745,-125.054 14.7988,-131.16"/>
<text text-anchor="middle" x="31.0046" y="-144.8" font-family="Arial" font-size="14.00">populate</text>
</g>
<!-- partial&#45;&gt;empty -->
<g id="edge4" class="edge"><title>partial&#45;&gt;empty</title>
<path fill="none" stroke="black" d="M82.5046,-123.175C82.5046,-134.806 82.5046,-150.419 82.5046,-163.734"/>
<polygon fill="black" stroke="black" points="79.0047,-163.799 82.5046,-173.799 86.0047,-163.799 79.0047,-163.799"/>
<text text-anchor="middle" x="98.0046" y="-144.8" font-family="Arial" font-size="14.00">clear</text>
</g>
<!-- partial&#45;&gt;partial -->
<g id="edge3" class="edge"><title>partial:e&#45;&gt;partial:e</title>
<path fill="none" stroke="black" d="M154.505,-105C178.505,-115.5 226.505,-115.5 226.505,-105 226.505,-95.7715 189.426,-94.654 164.151,-101.647"/>
<polygon fill="black" stroke="black" points="162.801,-98.4112 154.505,-105 165.099,-105.023 162.801,-98.4112"/>
<text text-anchor="middle" x="254.005" y="-101.3" font-family="Arial" font-size="14.00">populate</text>
</g>
<!-- complete -->
<g id="node4" class="node"><title>complete</title>
<polygon fill="#73dcff" stroke="black" points="154.505,-36 10.5046,-36 10.5046,-0 154.505,-0 154.505,-36"/>
<text text-anchor="middle" x="82.5046" y="-14.3" font-family="Arial" font-size="14.00">complete</text>
</g>
<!-- partial&#45;&gt;complete -->
<g id="edge5" class="edge"><title>partial&#45;&gt;complete</title>
<path fill="none" stroke="black" d="M82.5046,-86.799C82.5046,-75.1626 82.5046,-59.5479 82.5046,-46.2368"/>
<polygon fill="black" stroke="black" points="86.0047,-46.1754 82.5046,-36.1754 79.0047,-46.1755 86.0047,-46.1754"/>
<text text-anchor="middle" x="100.005" y="-57.8" font-family="Arial" font-size="14.00">close</text>
</g>
</g>
</svg>
